<svg xmlns="http://www.w3.org/2000/svg" xmlns:xlink="http://www.w3.org/1999/xlink" width="34px" height="34px" fill="#343a3f"> <path d="M1.679,29.909 L29.869,1.719 C30.064,1.524 30.381,1.524 30.576,1.719 L31.795,2.938 C31.991,3.134 31.991,3.450 31.795,3.646 L3.606,31.835 C3.411,32.030 3.094,32.030 2.899,31.835 L1.679,30.616 C1.484,30.420 1.484,30.104 1.679,29.909 Z"/> <path d="M3.606,1.719 L31.795,29.909 C31.991,30.104 31.991,30.420 31.795,30.616 L30.576,31.835 C30.381,32.030 30.064,32.030 29.869,31.835 L1.679,3.646 C1.484,3.450 1.484,3.134 1.679,2.938 L2.899,1.719 C3.094,1.524 3.411,1.524 3.606,1.719 Z"/> </svg>