<svg xmlns="http://www.w3.org/2000/svg" width="19.862" height="19.471" viewBox="0 0 19.862 19.471">
  <g id="Group_67" data-name="Group 67" transform="translate(-1521.173 -889.264)">
    <path id="Path_2" data-name="Path 2" d="M164.122,0H159a.513.513,0,1,0,0,1.026h3.886l-9.983,10.079a.513.513,0,0,0,.729.723L163.609,1.76V5.63a.513.513,0,0,0,1.026,0V.513A.513.513,0,0,0,164.122,0Zm0,0" transform="translate(1375.9 889.764)" fill="#fff" stroke="#fff" stroke-width="1"/>
    <path id="Path_3" data-name="Path 3" d="M15.815,57.7a.482.482,0,0,0-.488.476v5.215a1.448,1.448,0,0,1-1.464,1.429H2.44A1.448,1.448,0,0,1,.976,63.394V52.244A1.448,1.448,0,0,1,2.44,50.816H7.782a.476.476,0,1,0,0-.952H2.44A2.414,2.414,0,0,0,0,52.244v11.15a2.414,2.414,0,0,0,2.44,2.381H13.863a2.414,2.414,0,0,0,2.44-2.381V58.179A.482.482,0,0,0,15.815,57.7Zm0,0" transform="translate(1521.673 842.46)" fill="#fff" stroke="#fff" stroke-width="1"/>
  </g>
</svg>
